<?xml version="1.0" encoding="iso-8859-1"?>
<!-- Generator: Adobe Illustrator 19.0.0, SVG Export Plug-In . SVG Version: 6.00 Build 0)  -->
<svg version="1.1" id="Layer_1" xmlns="http://www.w3.org/2000/svg" xmlns:xlink="http://www.w3.org/1999/xlink" x="0px" y="0px"
	 viewBox="0 0 512 512" style="enable-background:new 0 0 512 512;" xml:space="preserve">
<path style="fill:#97F2E3;" d="M176.724,120.299c-3.734-2.466-7.689-4.712-11.835-6.71c-13.172-6.338-27.487-9.686-41.377-9.686
	c-27.53,0-50.842,12.911-60.831,33.702c-7.248,15.06-7.082,32.889,0.469,50.208c8.268,18.946,24.085,34.804,44.546,44.642
	c12.056,5.8,25.063,9.094,37.849,9.604l-14.647,30.395c-12.373-1.846-24.843-5.622-36.94-11.435
	c-56.435-27.16-83.221-88.556-59.839-137.152c23.23-48.279,87.231-65.751,143.377-39.351"/>
<path style="fill:#76DDCE;" d="M459.802,257.659c34.022,64.626,40.969,161.909-35.182,215.069
	c-26.024,18.171-57.232,27.426-88.971,27.426h-73.554c-31.739,0-62.946-9.255-88.971-27.426
	c-76.152-53.16-69.193-150.443-35.182-215.069c11.224-21.337,20.092-45.077,26.58-68.999c13.991-51.517,16.951-103.88,8.614-134.869
	c-1.305-4.857-3.661-9.327-6.464-13.495c-1.136-1.691-1.728-3.407-1.728-5.159c0-2.875,1.583-5.666,4.555-8.349
	c17.12-15.368,80.453-26.785,155.964-26.785c88.644,0,160.519,15.731,160.519,35.134c0,0,7.249,33.31-44.099,61.315
	C405.578,116.254,418.458,179.115,459.802,257.659z"/>
<path style="fill:#62C4B4;" d="M240.094,185.736l-75.572,2.924c13.991-51.517,16.951-103.88,8.614-134.869
	c-1.305-4.857-3.661-9.327-6.464-13.495c-1.136-1.691-1.728-3.407-1.728-5.159c0-2.875,1.583-5.666,4.555-8.349
	c25.589,11.84,53.281,26.181,64.287,37.188C256.477,86.665,240.094,185.736,240.094,185.736z"/>
<ellipse style="fill:#97F2E3;" cx="325.46" cy="35.134" rx="160.519" ry="35.134"/>
<path style="fill:#FFD41D;" d="M424.233,472.728c-26.024,18.171-57.232,27.426-88.971,27.426h-73.554
	c-31.739,0-62.946-9.255-88.971-27.426c-76.152-53.16-69.193-150.443-35.182-215.069c19.065-36.233,31.352-79.426,36.717-118.656
	c3.48,8.675,30.748,16.069,69.144,19.693c16.214,1.522,34.421,2.38,53.655,2.38c67.658,0,122.582-10.608,123.174-23.753
	c-0.785,30.048,13.858,72.249,39.169,120.335C493.437,322.285,500.384,419.568,424.233,472.728z"/>
<path style="fill:#EFC71D;" d="M301.131,500.154h-39.423c-31.739,0-62.946-9.255-88.971-27.426
	c-76.152-53.16-69.193-150.443-35.182-215.069c19.065-36.233,31.352-79.426,36.717-118.656c3.48,8.675,30.748,16.069,69.144,19.693
	c-1.365,16.395-3.709,32.573-7.527,46.273C221.391,256.922,176.688,458.254,301.131,500.154z"/>
<path style="fill:#FCE275;" d="M420.644,137.107c0,13.242-55.154,23.97-123.186,23.97c-19.343,0-37.635-0.87-53.909-2.416
	c-38.299-3.625-65.471-11.007-68.903-19.681c-0.254-0.616-0.375-1.244-0.375-1.873c0-1.051,0.35-2.078,1.027-3.093
	c5.509-8.3,32.863-15.271,70.485-18.654c15.706-1.426,33.213-2.211,51.674-2.211C365.491,113.149,420.644,123.877,420.644,137.107z"
	/>
<path style="fill:#E5CC61;" d="M243.549,158.661c-38.299-3.625-65.471-11.007-68.903-19.681c0.23-1.667,0.447-3.322,0.652-4.966
	c5.509-8.3,32.863-15.271,70.485-18.654C245.953,130.402,244.842,145.987,243.549,158.661z"/>
<path style="fill:#FFA91F;" d="M195.741,471.085c-8.892,14.836-22.206,25.783-38.118,32.585
	c-32.947,14.136-77.01,10.547-115.986-12.807l33.261-55.492l65.628-109.51C198.339,360.5,223.058,425.524,195.741,471.085z"/>
<path style="fill:#E2901A;" d="M157.623,503.67c-32.947,14.136-77.01,10.547-115.986-12.807l33.261-55.492l68.673-21.192
	C143.572,414.18,125.896,471.931,157.623,503.67z"/>
<g>
	
		<ellipse transform="matrix(-0.8577 -0.5141 0.5141 -0.8577 -40.7817 805.4662)" style="fill:#FCE275;" cx="91.063" cy="408.376" rx="49.322" ry="96.181"/>
	<ellipse style="fill:#FCE275;" cx="421.499" cy="352.258" rx="33.225" ry="63.43"/>
</g>
<g>
	<path style="fill:#FFD41D;" d="M92.705,397.429l37.648-62.818c-1.366-0.333-2.839-0.504-4.442-0.504
		c-8.822,0-20.043,4.974-31.596,14.006c-3.89,3.041-7.705,6.455-11.414,10.186L92.705,397.429z"/>
	<path style="fill:#FFD41D;" d="M102.015,409.98l23.142,13.87c4.207-7.405,7.765-14.909,10.631-22.331L102.015,409.98z"/>
	<path style="fill:#FFD41D;" d="M97.667,417.234l8.46,33.77c5.211-6.038,10.14-12.714,14.679-19.901L97.667,417.234z"/>
	<path style="fill:#FFD41D;" d="M139.103,391.969c2.642-8.6,4.287-16.975,4.805-24.818c0.847-12.798-1.434-22.732-6.31-28.175
		L99.96,401.775L139.103,391.969z"/>
	<path style="fill:#FFD41D;" d="M43.067,424.747c-2.642,8.6-4.287,16.975-4.805,24.818c-0.847,12.798,1.434,22.732,6.31,28.175
		l37.637-62.799L43.067,424.747z"/>
	<path style="fill:#FFD41D;" d="M89.463,419.289l-37.648,62.818c1.366,0.333,2.838,0.504,4.441,0.504l0,0
		c8.822,0,20.044-4.974,31.596-14.006c3.89-3.041,7.705-6.455,11.414-10.186L89.463,419.289z"/>
	<path style="fill:#FFD41D;" d="M80.154,406.738l-23.142-13.87c-4.207,7.405-7.765,14.909-10.631,22.331L80.154,406.738z"/>
	<path style="fill:#FFD41D;" d="M76.042,365.714c-5.211,6.038-10.141,12.714-14.679,19.901l23.14,13.869L76.042,365.714z"/>
</g>
<g>
</g>
<g>
</g>
<g>
</g>
<g>
</g>
<g>
</g>
<g>
</g>
<g>
</g>
<g>
</g>
<g>
</g>
<g>
</g>
<g>
</g>
<g>
</g>
<g>
</g>
<g>
</g>
<g>
</g>
</svg>
