<?xml version="1.0" encoding="iso-8859-1"?>
<!-- Generator: Adobe Illustrator 19.0.0, SVG Export Plug-In . SVG Version: 6.00 Build 0)  -->
<svg version="1.1" id="Layer_1" xmlns="http://www.w3.org/2000/svg" xmlns:xlink="http://www.w3.org/1999/xlink" x="0px" y="0px"
	 viewBox="0 0 512 512" style="enable-background:new 0 0 512 512;" xml:space="preserve">
<g>
	<path style="fill:#97F2E3;" d="M370.424,160.594c18.311,8.677,29.166,19.509,29.166,31.253v268.411
		c0,28.573-64.284,51.742-143.584,51.742s-143.595-23.169-143.595-51.742V191.847c0-11.744,10.866-22.576,29.166-31.253"/>
	<path style="fill:#97F2E3;" d="M372.291,99.339v53.726c0,7.537-5.519,14.606-15.187,20.729c-9.407,5.94-22.758,10.98-38.766,14.651
		c-18.015,4.127-39.405,6.522-62.334,6.522c-19.782,0-38.413-1.779-54.729-4.926c-36.646-7.046-61.57-20.957-61.57-36.976V99.339
		H372.291z"/>
</g>
<path style="fill:#BBF9ED;" d="M357.104,99.727v74.067c-9.407,5.94-22.758,10.98-38.766,14.651V99.727H357.104z"/>
<path style="fill:#76DDCE;" d="M201.277,99.344v90.702c-36.646-7.046-61.57-20.957-61.57-36.976V99.344H201.277z"/>
<path style="fill:#97F2E3;" d="M372.291,99.339c0,5.655-3.113,11.06-8.757,15.985c-9.532,8.323-26.304,15.29-47.477,19.896v0.011
	c-12.132,2.645-25.711,4.504-40.214,5.404c-6.442,0.399-13.078,0.604-19.839,0.604c-7.4,0-14.64-0.251-21.664-0.73
	c-38.972-2.645-71.079-12.303-85.868-25.187c-5.655-4.926-8.768-10.319-8.768-15.985c0-20.466,40.762-37.512,94.636-41.161
	c7.024-0.479,14.264-0.73,21.664-0.73c14.207,0,27.821,0.912,40.408,2.6l36.794,7.959C357.184,75.68,372.291,86.877,372.291,99.339z
	"/>
<path style="fill:#76DDCE;" d="M178.765,191.847c0-11.744-37.188-31.253-37.188-31.253c-18.3,8.677-29.166,19.509-29.166,31.253
	v268.411c0,18.327,26.455,34.431,66.354,43.624V191.847z"/>
<path style="fill:#F47AC9;" d="M373.365,309.275v109.977c0,20.306-13.248,38.268-32.682,44.153c-0.214,0.065-0.429,0.13-0.645,0.194
	c-23.294,6.944-53.133,10.775-84.032,10.775c-27.969,0-55.071-3.135-77.236-8.882c-2.315-0.604-4.584-1.231-6.796-1.893
	c-0.218-0.065-0.434-0.13-0.651-0.196c-19.437-5.883-32.688-23.847-32.688-44.155V309.274h234.73V309.275z"/>
<path style="fill:#ED8AD3;" d="M178.77,309.275v156.217c-2.315-0.604-4.584-1.231-6.796-1.893c-0.217-0.065-0.432-0.129-0.645-0.194
	c-19.44-5.885-32.694-23.85-32.694-44.162V309.275L178.77,309.275L178.77,309.275z"/>
<path style="fill:#F995DB;" d="M373.365,309.275c0,20.227-52.551,36.623-117.371,36.623c-29.565,0-56.588-3.409-77.225-9.042
	c-24.594-6.716-40.135-16.578-40.135-27.581c0-10.991,15.541-20.865,40.135-27.57c17.365-4.743,39.234-7.901,63.337-8.791
	l38.687,0.559C333.698,277.019,373.365,291.705,373.365,309.275z"/>
<path style="fill:#FFA91F;" d="M344.573,23.471l-0.627,2.463l-1.174,4.595l-3.318,13.01l-6.248,24.468l-0.228,0.889l-1.197,4.709
	l-3.364,13.169l-7.012,27.456l-0.627,2.463l-3.386,13.295l-1.334,5.233v0.011l-12.576,1.687c0,0,0,0-0.011,0l-27.627,3.717
	l1.494-5.861l7.822-30.603l1.288-5.074l1.437-5.655l8.392-32.86l0.137-0.536l1.026-4.036l1.619-6.339l9.064-35.505
	c2.565-10.068,12.816-16.145,22.872-13.58C341.061,3.153,347.15,13.403,344.573,23.471z"/>
<path style="fill:#F9C580;" d="M301.679,191.603l-1.995,7.833l-0.878,3.443l-3.512,13.739l-6.168,24.183l-1.323,5.176l-3.227,12.645
	l-7.765,30.443l-2.212,8.677c-2.121,8.335-9.623,14.161-18.232,14.161c-10.638,0-18.813-8.7-18.813-18.767
	c0-1.539,0.194-3.113,0.593-4.686l3.17-12.451v-0.011l1.152-4.515l1.63-6.408l8.164-31.994l1.197-4.686l1.573-6.168l6.967-27.307
	L301.679,191.603z"/>
<path style="fill:#ED8AD3;" d="M178.77,281.705v55.151c-24.594-6.716-40.135-16.578-40.135-27.581
	C138.635,298.283,154.176,288.409,178.77,281.705z"/>
<g>
	<path style="fill:#F78484;" d="M299.684,199.436l-0.878,3.443l-3.512,13.739c-16.761,11.801-34.742,15.381-43.031,16.453
		l1.197-4.686l1.573-6.168C265.638,220.256,284.907,214.737,299.684,199.436z"/>
	<path style="fill:#F78484;" d="M289.126,240.802l-1.323,5.176l-3.227,12.645c-16.373,12.075-34.228,16.065-43.259,17.365
		l1.152-4.515l1.63-6.408c10.843-2.166,29.257-7.867,43.464-22.644L289.126,240.802z"/>
</g>
<g>
	<path style="fill:#F94848;" d="M343.946,25.934l-1.174,4.595l-3.318,13.01c-16.499,11.972-34.377,15.826-43.179,17.046l0.137-0.536
		l1.026-4.036l1.619-6.339c10.786-2.087,29.485-7.73,43.897-22.713L343.946,25.934z"/>
	<path style="fill:#F94848;" d="M332.978,68.896l-1.197,4.709l-3.364,13.169c-19.383,14.583-38.915,17.023-43.259,17.399
		l1.288-5.074l1.437-5.655c8.301-1.402,27.627-6.385,43.988-23.397L332.978,68.896z"/>
	<path style="fill:#F94848;" d="M321.405,114.23l-0.627,2.463l-3.386,13.295c-4.492,2.725-9.258,5.017-13.91,6.932c0,0,0,0-0.011,0
		l-27.627,3.717l1.494-5.861l1.551-0.445C288.955,131.469,309.581,125.586,321.405,114.23z"/>
</g>
<g>
	<path style="fill:#ED8AD3;" d="M304.804,309.275c-3.735,0-7.09-1.226-8.185-2.977c-1.002-1.603,0.111-3.4,2.755-4.462
		c5.853-2.349,14.802,0.068,13.903,3.757C312.772,307.669,309.053,309.275,304.804,309.275z"/>
	<path style="fill:#ED8AD3;" d="M239.243,332.079c-3.735,0-7.09-1.226-8.185-2.977c-1.003-1.603,0.111-3.4,2.755-4.462
		c5.853-2.349,14.802,0.068,13.903,3.757C247.212,330.473,243.492,332.079,239.243,332.079z"/>
	<path style="fill:#ED8AD3;" d="M207.603,307.85c-3.735,0-7.09-1.226-8.185-2.977c-1.003-1.603,0.111-3.4,2.755-4.462
		c5.853-2.349,14.802,0.068,13.903,3.757C215.571,306.244,211.852,307.85,207.603,307.85z"/>
	<path style="fill:#ED8AD3;" d="M194.582,408.638c-3.886,0-7.346-2.722-8.296-6.479c-0.854-3.377,0.517-7.07,3.369-9.067
		c6.266-4.385,14.954,1.386,13.262,8.863C202.045,405.809,198.54,408.638,194.582,408.638z"/>
	<path style="fill:#ED8AD3;" d="M263.745,386.586c-3.58,0-6.827-2.307-8.042-5.668c-1.229-3.401-0.099-7.363,2.755-9.596
		c6.014-4.704,15.08,0.585,13.716,8.181C271.447,383.553,267.868,386.586,263.745,386.586z"/>
	<path style="fill:#ED8AD3;" d="M203.703,438.282c-3.563,0-6.862-2.313-8.049-5.675c-1.204-3.411-0.114-7.358,2.751-9.592
		c2.83-2.207,6.825-2.44,9.865-0.511c3.007,1.909,4.564,5.612,3.765,9.095C211.153,435.448,207.677,438.282,203.703,438.282z"/>
	<path style="fill:#ED8AD3;" d="M306.434,432.388c-3.573,0-6.827-2.317-8.042-5.67c-1.285-3.549,0.01-7.655,3.082-9.84
		c6.323-4.496,15.177,1.475,13.246,9.058C313.764,429.683,310.308,432.388,306.434,432.388z"/>
</g>
<g>
	<path style="fill:#BBF9ED;" d="M234.34,58.178v82.333c-38.972-2.645-71.079-12.303-85.868-25.187
		c-5.655-4.926-8.768-10.319-8.768-15.985C139.704,78.873,180.466,61.827,234.34,58.178z"/>
	
		<ellipse transform="matrix(-0.2877 -0.9577 0.9577 -0.2877 253.187 613.2878)" style="fill:#BBF9ED;" cx="354.657" cy="212.491" rx="12.826" ry="23.942"/>
</g>
<g>
</g>
<g>
</g>
<g>
</g>
<g>
</g>
<g>
</g>
<g>
</g>
<g>
</g>
<g>
</g>
<g>
</g>
<g>
</g>
<g>
</g>
<g>
</g>
<g>
</g>
<g>
</g>
<g>
</g>
</svg>
