<?xml version="1.0" encoding="iso-8859-1"?>
<!-- Generator: Adobe Illustrator 19.0.0, SVG Export Plug-In . SVG Version: 6.00 Build 0)  -->
<svg version="1.1" id="Layer_1" xmlns="http://www.w3.org/2000/svg" xmlns:xlink="http://www.w3.org/1999/xlink" x="0px" y="0px"
	 viewBox="0 0 512.001 512.001" style="enable-background:new 0 0 512.001 512.001;" xml:space="preserve">
<g>
	<path style="fill:#6E8C96;" d="M189.936,276.52c3.097,11.355-3.097,42.839-16.516,57.807c-0.487,0.543,49.548,0,74.323-33.032
		L189.936,276.52z"/>
	<path style="fill:#6E8C96;" d="M330.323,317.809c7.226,10.581,8,41.548,8,41.548c13.419-8.258,24.258-29.419,25.821-33.559
		L330.323,317.809z"/>
	<path style="fill:#6E8C96;" d="M371.614,210.455c0-15.484-10.065-45.419-24.774-57.807c-0.526-0.444,0,24.774-49.548,33.032
		c-45.419,7.57-41.29,24.774-41.29,24.774s-35.784-33.032-57.807-33.032c0,0,23.397,21.333,8.258,49.548L371.614,210.455z"/>
	<path style="fill:#6E8C96;" d="M0,177.423c0,0,41.29,60.559,41.29,82.581C41.29,282.025,0,342.585,0,342.585
		c35.784-7.571,82.581-74.323,82.581-74.323v-16.516C82.581,251.746,35.784,184.993,0,177.423z"/>
</g>
<path style="fill:#91D7CD;" d="M512,251.746c0,0-75.01-57.807-156.904-57.807c-130.746,0-212.637,57.8-272.507,57.807h-0.008
	c-4.561,0-8.258,3.697-8.258,8.258c0,4.561,3.698,8.258,8.258,8.258l0,0c59.871,0,141.763,57.807,272.517,57.807
	c81.892,0,134.194-41.29,156.904-41.29l-24.774-16.516L512,251.746z"/>
<path style="fill:#B7E6E7;" d="M355.098,326.068c16.879,0,32.426-1.812,46.79-4.597l-22.016-28.435
	c-107.355,16.516-90.839-41.29-202.615-0.863C224.445,308.082,282.155,326.068,355.098,326.068z"/>
<path style="fill:#73B4C8;" d="M417.888,283.156c-6.113-16.702,0.29-31.759,2.403-35.976c0.52-1.041,1.365-2.329,2.129-3.655
	c23.674,4.117,48.421,8.22,89.582,8.22c0,0-75.01-57.807-156.904-57.807c-130.746,0-212.637,57.8-272.507,57.807h-0.009
	c-4.561,0-8.258,3.697-8.258,8.258c41.29,0,173.42-24.774,264.259-24.774c15.654,0,28.659,0.758,40.342,1.915
	c-7.904,19.336-14.655,60.054,10.771,86.361c7.249-1.04,14.28-2.293,20.947-3.822c-0.214-0.17-0.314-0.423-0.551-0.575
	c-38.944-24.831-14.371-79.113-14.081-79.637c0.045-0.084,0.039-0.178,0.082-0.262c3.075,0.442,6.091,0.901,9.058,1.381
	c-3.124,6.504-10.859,26.151-2.77,48.244c3.843,10.487,10.707,19.742,20.288,27.795c6.836-1.899,13.268-3.99,19.419-6.15
	C429.894,302.812,421.742,293.677,417.888,283.156z"/>
<path style="fill:#6E8C96;" d="M239.484,235.23c-0.452,0.248,57.807,33.032,82.581,41.29c14.697,4.899,33.032,0,33.032,0
	s0-16.516,8.258-24.774C363.356,251.746,269.678,218.714,239.484,235.23z"/>
<circle style="fill:#464655;" cx="450.065" cy="247.619" r="12.387"/>
<g>
</g>
<g>
</g>
<g>
</g>
<g>
</g>
<g>
</g>
<g>
</g>
<g>
</g>
<g>
</g>
<g>
</g>
<g>
</g>
<g>
</g>
<g>
</g>
<g>
</g>
<g>
</g>
<g>
</g>
</svg>
